<svg data-v-6805eed4="" version="1.0" xmlns="http://www.w3.org/2000/svg" xmlns:xlink="http://www.w3.org/1999/xlink" width="100%" height="100%" viewBox="0 0 340.000000 250.000000" preserveAspectRatio="xMidYMid meet" color-interpolation-filters="sRGB" style="margin: auto;"> <rect data-v-6805eed4="" x="0" y="0" width="100%" height="100%" fill="#000000" fill-opacity="0" class="background"></rect> <rect data-v-6805eed4="" x="0" y="0" width="100%" height="100%" fill="url(#watermark)" fill-opacity="1" class="watermarklayer"></rect> <g data-v-6805eed4="" fill="#28dece" class="newinitialsvg-g newinitialsvg" transform="translate(79.0549106001854,1.1368236541748047)"><g class="tp-name" opacity="1" transform="matrix(1,0,0,1,0,0)"><g class="tp-graph" transform="translate(0, 0)"><rect data-gra="graph-name" fill="none" x="0" y="2.9926625061780214" width="65.88102857142833" height="0"></rect> <g data-gra="path-name" transform="translate(-0.049189846365912615,3)" fill="url(#7b4472b7-08da-4466-a2ea-c3692b890d01)"><g transform="scale(7.019999999999974)"><path d="M3.45-28.60L3.45-28.60Q3.58-28.86 3.71-28.80Q3.83-28.73 3.77-28.47L3.77-28.47Q3.71-28.28 3.90-28.08Q4.09-27.89 4.75-27.56L4.75-27.56Q6.44-26.85 6.92-25.06Q7.41-23.27 7.21-21.06L7.21-21.06Q7.35-19.82 7.25-19.40Q7.15-18.98 6.96-17.55L6.96-17.55Q6.37-9.10 5.98-7.28L5.98-7.28Q5.79-6.17 5.20-5.92L5.20-5.92Q5.00-5.92 5.00-6.04L5.00-6.04Q4.94-6.24 4.49-5.85L4.49-5.85Q4.23-5.53 3.97-5.56Q3.71-5.59 3.71-5.85L3.71-5.85Q3.71-6.17 3.31-6.60Q2.93-7.02 2.93-7.41Q2.93-7.80 2.67-8.19Q2.41-8.58 2.08-9.46Q1.76-10.34 1.59-10.34Q1.43-10.34 1.43-10.82Q1.43-11.31 1.14-11.54Q0.84-11.77 1.33-12.51Q1.82-13.26 1.82-13.49Q1.82-13.71 2.02-13.71Q2.21-13.71 2.18-13.97Q2.15-14.24 2.24-14.50Q2.34-14.76 2.57-16.45Q2.79-18.14 2.99-19.50L2.99-19.50Q3.45-22.69 3.31-25.09L3.31-25.09Q3.31-28.41 3.45-28.60ZM2.34-38.74L2.34-38.74Q2.67-39.20 3.38-38.80L3.38-38.80Q3.71-38.55 4.52-38.38Q5.33-38.22 5.40-38.29L5.40-38.29Q5.53-38.41 6.66-37.86Q7.80-37.31 8.58-36.73L8.58-36.73Q9.43-36.01 9.98-35.30Q10.53-34.58 10.40-34.38L10.40-34.38Q10.34-34.19 10.08-33.09L10.08-33.09Q9.95-32.37 9.81-32.21Q9.69-32.05 9.29-32.05L9.29-32.05Q8.58-31.98 8.29-32.11Q8.00-32.24 7.96-32.18Q7.93-32.11 7.64-32.44Q7.35-32.76 7.08-32.76L7.08-32.76Q6.89-32.76 6.04-33.87Q5.20-34.97 5.20-35.30L5.20-35.30Q5.20-35.69 4.65-36.24Q4.09-36.79 3.58-36.79L3.58-36.79Q2.73-36.92 2.31-37.60Q1.89-38.29 2.34-38.74Z" transform="translate(-1.0399999999999998, 38.98500000000001)"></path></g></g></g><g transform="translate(66.88102857142833, 0)"><g data-gra="path-name" fill="url(#be094482-8c74-4319-89b9-5e8b57eaa62a)" transform="translate(0,3)"><g transform="scale(7.019999999999974)"><path d="M5.82-4.62Q6.11-4.68 6.11-4.81Q6.11-4.94 6.31-4.88L6.31-4.88Q6.70-4.62 6.17-4.55L6.17-4.55Q6.04-4.55 5.92-4.55L5.92-4.55Q5.53-4.55 5.82-4.62ZM11.57-28.02L11.57-28.02Q13.20-28.28 14.27-27.82Q15.34-27.37 15.34-26.46L15.34-26.46Q15.34-26.07 15.41-25.84Q15.47-25.61 15.08-25.41L15.08-25.41Q14.88-25.22 14.72-25.22Q14.56-25.22 13.97-25.55L13.97-25.55Q13.20-25.87 13.16-25.74Q13.13-25.61 12.94-25.61Q12.74-25.61 12.74-25.48L12.74-25.48Q12.74-25.16 12.35-25.68L12.35-25.68Q12.16-25.80 12.16-26L12.16-26Q11.77-27.04 8.06-25.22L8.06-25.22Q6.37-24.38 5.13-23.27L5.13-23.27Q4.36-22.62 4.00-22.04Q3.64-21.45 3.38-20.28L3.38-20.28Q2.79-17.62 3.83-16.35Q4.88-15.08 8.32-14.37L8.32-14.37Q12.16-13.59 13.85-12.80L13.85-12.80Q15.15-12.16 16.02-11.21Q16.90-10.27 17.03-9.23L17.03-9.23Q17.09-8.64 17.00-8.52Q16.90-8.38 16.51-8.00L16.51-8.00Q15.47-7.08 13.91-6.89L13.91-6.89Q13.39-6.83 12.84-6.60Q12.29-6.37 12.09-6.53Q11.89-6.70 11.54-6.50Q11.18-6.31 10.99-6.40Q10.79-6.50 10.27-6.31Q9.75-6.11 9.69-6.17Q9.62-6.24 9.04-5.85L9.04-5.85Q8.64-5.53 8.45-5.49Q8.26-5.46 8.19-5.72L8.19-5.72Q8.06-5.92 7.74-5.79L7.74-5.79Q7.54-5.72 7.48-5.72L7.48-5.72Q7.41-5.72 7.61-5.72L7.61-5.72Q7.61-5.72 7.80-5.72L7.80-5.72Q8.06-5.59 8.09-5.56Q8.13-5.53 7.93-5.40L7.93-5.40Q7.48-4.88 7.21-5.00L7.21-5.00Q7.15-5.07 7.21-5.13L7.21-5.13Q7.21-5.27 7.08-5.36Q6.96-5.46 6.79-5.46Q6.63-5.46 6.57-5.33L6.57-5.33Q6.44-5.20 6.34-5.13Q6.24-5.07 6.11-5.10Q5.98-5.13 5.98-5.27L5.98-5.27Q5.98-5.46 5.53-5.46Q5.07-5.46 4.88-5.33L4.88-5.33Q4.75-5.20 4.55-5.13Q4.36-5.07 4.16-5.10Q3.97-5.13 3.97-5.20L3.97-5.20Q3.97-5.33 4.32-5.46Q4.68-5.59 4.68-6.11L4.68-6.11Q4.68-6.63 4.88-6.63L4.88-6.63Q4.94-6.63 5.04-6.47Q5.13-6.31 5.23-6.63Q5.33-6.96 5.66-6.96Q5.98-6.96 5.98-7.08L5.98-7.08Q5.98-7.28 5.20-7.15L5.20-7.15Q4.68-7.08 4.55-6.70Q4.42-6.31 4.19-6.40Q3.97-6.50 3.87-6.31Q3.77-6.11 3.67-6.11Q3.58-6.11 2.99-5.79Q2.41-5.46 2.27-5.53Q2.15-5.59 2.05-5.46Q1.95-5.33 1.63-5.40L1.63-5.40L1.36-5.40L1.63-5.53Q1.95-5.72 2.18-6.01Q2.41-6.31 2.54-6.31Q2.67-6.31 3.19-6.70L3.19-6.70Q3.83-7.15 4.68-7.48L4.68-7.48Q5.13-7.67 5.13-7.83Q5.13-8.00 5.98-8.38L5.98-8.38Q7.61-9.17 8.45-9.81L8.45-9.81Q8.97-10.27 9.04-10.27L9.04-10.27Q9.23-10.27 10.40-11.08Q11.57-11.89 11.51-11.89L11.51-11.89Q11.25-12.42 7.54-13L7.54-13Q5.33-13.33 3.31-14.66Q1.30-15.99 0.91-17.29L0.91-17.29Q0.65-18.07 0.65-18.59L0.65-18.59Q0.65-19.37 1.10-20.44Q1.56-21.52 2.08-22.10L2.08-22.10Q2.54-22.62 2.54-22.69Q2.54-22.75 3.19-23.34Q3.83-23.92 3.83-24.12L3.83-24.12Q3.83-24.38 4.91-25.12Q5.98-25.87 7.02-26.39L7.02-26.39Q9.69-27.82 11.57-28.02ZM5.46-6.17L5.46-6.17Q5.46-6.24 5.20-6.24Q4.94-6.24 5.07-6.11L5.07-6.11Q5.13-5.92 5.30-5.95Q5.46-5.98 5.46-6.17Z" transform="translate(-0.65, 38.98500000000001)"></path></g></g></g></g> <!----></g><defs v-gra="od"><linearGradient x1="0" y1="1" x2="0" y2="0" id="be094482-8c74-4319-89b9-5e8b57eaa62a"><stop offset="0%" stop-color="#4158d0"></stop><stop offset="50%" stop-color="#c850c0"></stop><stop offset="100%" stop-color="#ffcc70"></stop></linearGradient><filter id="42443b3f1de60f6b6fd3b6a9844b4764" filterUnits="objectBoundingBox"><feColorMatrix type="matrix" values="0 0 0 0 0.99609375  0 0 0 0 0.99609375  0 0 0 0 0.99609375  0 0 0 1 0"></feColorMatrix></filter><linearGradient x1="0" y1="1" x2="0" y2="0" id="7b4472b7-08da-4466-a2ea-c3692b890d01"><stop offset="0%" stop-color="#4158d0"></stop><stop offset="50%" stop-color="#c850c0"></stop><stop offset="100%" stop-color="#ffcc70"></stop></linearGradient><filter id="42443b3f1de60f6b6fd3b6a9844b4764" filterUnits="objectBoundingBox"><feColorMatrix type="matrix" values="0 0 0 0 0.99609375  0 0 0 0 0.99609375  0 0 0 0 0.99609375  0 0 0 1 0"></feColorMatrix></filter></defs></svg>
